# xmcd
#
# Track frame offsets:
#	150
#	12206
#	22670
#	31129
#	41478
#	51827
#	58566
#	69096
#	80807
#	91772
#	102013
#	112175
#	120714
#	130332
#	138972
#	151145
#	158001
#	169431
#	181473
#	191137
#
# Disc length: 2737 seconds
#
# Revision: 1
# Processed by: cddbd v1.4PL0 Copyright (c) Steve Scherf et al.
# Submitted via: audiograbber 1.81.03
#
DISCID=fe0aaf14
DTITLE=Waylon Jennings - White lightening
DYEAR=1900
DGENRE=Rock
TTITLE0=don't think twice
TTITLE1=burning memories
TTITLE2=abilene
TTITLE3=money
TTITLE4=lorena
TTITLE5=it's so easy
TTITLE6=dream baby
TTITLE7=crying
TTITLE8=big mamou
TTITLE9=white lightning
TTITLE10=sally was a good ol' girl
TTITLE11=love's gonna live here
TTITLE12=when sin stops
TTITLE13=jolie blond
TTITLE14=willie nelson - shelter of my arms
TTITLE15=willie nelson - both ends of the candle
TTITLE16=willie nelson - is there something on your mind
TTITLE17=willie nelson - happinnnness lives next door
TTITLE18=willie nelson - let's pretend
TTITLE19=willie nelson - rainy day blues
EXTD=
EXTT0=
EXTT1=
EXTT2=
EXTT3=
EXTT4=
EXTT5=
EXTT6=
EXTT7=
EXTT8=
EXTT9=
EXTT10=
EXTT11=
EXTT12=
EXTT13=
EXTT14=
EXTT15=
EXTT16=
EXTT17=
EXTT18=
EXTT19=
PLAYORDER=
